<svg t="1743238227257" class="icon" viewBox="0 0 1024 1024" version="1.1" xmlns="http://www.w3.org/2000/svg" p-id="4534" width="200" height="200"><path d="M1011.712 952.149333l-154.282667-154.112c160.426667-190.634667 150.869333-476.501333-28.501333-655.872-189.44-189.269333-497.664-189.098667-686.933333 0.341334C50.346667 234.325333 0 356.352 0 486.058667S50.688 737.621333 142.336 829.44c94.72 94.549333 218.965333 141.824 343.210667 141.824 111.274667 0 222.549333-38.058667 312.661333-114.005333l154.282667 154.112a41.762133 41.762133 0 0 0 59.221333 0c16.384-16.384 16.384-42.837333 0-59.221334zM201.557333 770.048c-75.946667-75.946667-117.76-176.810667-117.930666-284.16 0-107.349333 41.642667-208.384 117.589333-284.330667 78.336-78.506667 181.418667-117.76 284.330667-117.76 102.912 0 205.653333 39.082667 283.989333 117.418667 156.842667 156.672 156.842667 411.648 0.341333 568.32-156.501333 157.013333-411.477333 157.184-568.32 0.512z" fill="#303030" p-id="4535"></path><path d="M454.997333 441.514667a132.010667 132.010667 0 0 0-190.805333 0.170666c-50.005333 52.224-47.104 135.68 4.096 186.709334l78.165333 77.994666c7.338667 7.338667 19.285333 7.338667 26.624 0l77.994667-78.165333c51.2-51.029333 53.930667-134.485333 3.925333-186.709333z m-95.402666 136.362666A48.810667 48.810667 0 1 1 408.405333 529.066667c0.170667 26.965333-21.845333 48.810667-48.810666 48.810666zM770.901333 318.464c-35.84-37.376-95.573333-37.376-131.242666 0-34.474667 36.010667-32.426667 93.354667 2.901333 128.512l53.76 53.76c5.12 5.12 13.312 5.12 18.261333 0l53.76-53.76c34.986667-35.157333 37.034667-92.672 2.56-128.512z m-65.536 93.696c-18.602667 0-33.621333-15.018667-33.621333-33.621333 0-18.602667 15.018667-33.621333 33.621333-33.621334 18.602667 0 33.621333 15.018667 33.621334 33.621334 0 18.602667-15.189333 33.621333-33.621334 33.621333z" fill="#303030" p-id="4536"></path><path d="M576.512 733.525333h-155.648c-12.117333 0-22.016-9.898667-22.016-22.016 0-12.117333 9.898667-22.016 22.016-22.016h155.648c12.458667 0 16.554667-9.898667 17.578667-12.8 1.024-3.072 3.242667-13.482667-6.997334-20.650666l-51.029333-35.328c-22.869333-15.872-32.426667-43.349333-24.064-69.973334 8.362667-26.624 31.744-43.861333 59.562667-43.861333h133.802666c12.117333 0 22.016 9.898667 22.016 22.016s-9.898667 22.016-22.016 22.016h-133.802666c-12.629333 0-16.725333 9.898667-17.749334 12.970667-1.024 3.072-3.242667 13.653333 7.168 20.821333l51.029334 35.328c22.869333 15.872 32.256 43.178667 23.893333 69.802667s-31.744 43.690667-59.392 43.690666z" fill="#303030" p-id="4537"></path></svg>